<?xml version="1.0" encoding="UTF-8"?>
<svg width="800mm" height="1800mm" viewBox="0 0 800 1800" xmlns="http://www.w3.org/2000/svg">
  <defs>
    <linearGradient id="bg" x1="0" y1="0" x2="800" y2="1800">
      <stop offset="0%" stop-color="#FFF7ED"/>
      <stop offset="50%" stop-color="#FFFFFF"/>
      <stop offset="100%" stop-color="#EFF6FF"/>
    </linearGradient>
  </defs>
  <rect width="800" height="1800" fill="url(#bg)"/>
  <text x="80" y="180" font-size="72" font-family="Inter, Arial" fill="#24324A" letter-spacing="4">Zentro</text>
  <text x="80" y="260" font-size="50" font-family="Noto Sans CJK SC, sans-serif" fill="#24324A">即兴一下</text>
  <g transform="translate(30,310) scale(0.62)">
    
  <path d="M395 220
           C245 178, 145 292, 185 412
           C230 548, 410 542, 520 430
           C646 302, 735 176, 888 160
           C1045 144, 1140 263, 1090 392
           C1055 484, 970 522, 895 510"
        fill="none" stroke="url(#zentroGradient)" stroke-width="86"
        stroke-linecap="round" stroke-linejoin="round"/>
  <path d="M350 70 L374 188" fill="none" stroke="#FF7A18" stroke-width="40" stroke-linecap="round"/>
  <path d="M492 160 L552 90" fill="none" stroke="#D946EF" stroke-width="40" stroke-linecap="round"/>
  <path d="M610 470 L660 520" fill="none" stroke="#D946EF" stroke-width="40" stroke-linecap="round"/>
  <circle cx="1098" cy="470" r="32" fill="#2563EB"/>

  </g>
  <text x="400" y="960" text-anchor="middle" font-size="78" font-family="Noto Sans CJK SC, sans-serif" font-weight="700" fill="#24324A">让即兴发生</text>
  <text x="400" y="1040" text-anchor="middle" font-size="34" font-family="Noto Sans CJK SC, sans-serif" fill="#566278">发布活动 · 报名签到 · 现场互动</text>
  <rect x="260" y="1250" width="280" height="280" rx="30" fill="#FFFFFF" stroke="#E2E8F0" stroke-width="3"/>
  <text x="400" y="1400" text-anchor="middle" font-size="24" font-family="Noto Sans CJK SC, sans-serif" fill="#7C8AA5">替换真实二维码</text>
  <text x="400" y="1630" text-anchor="middle" font-size="38" font-family="Noto Sans CJK SC, sans-serif" fill="#24324A">扫码加入 Zentro</text>
</svg>